<svg width="256" height="256" viewBox="0 0 256 256" fill="none" xmlns="http://www.w3.org/2000/svg">
<rect width="256" height="256" rx="64" fill="white"/>
<path d="M86.2727 175V81.9091H142.091V91.9091H97.5455V123.364H137.909V133.364H97.5455V175H86.2727ZM163.386 175.727C161.144 175.727 159.22 174.924 157.614 173.318C156.008 171.712 155.205 169.788 155.205 167.545C155.205 165.303 156.008 163.379 157.614 161.773C159.22 160.167 161.144 159.364 163.386 159.364C165.629 159.364 167.553 160.167 169.159 161.773C170.765 163.379 171.568 165.303 171.568 167.545C171.568 169.03 171.189 170.394 170.432 171.636C169.705 172.879 168.72 173.879 167.477 174.636C166.265 175.364 164.902 175.727 163.386 175.727Z" fill="black"/>
</svg>
